<?xml version="1.0" encoding="UTF-8" standalone="no"?>
<!DOCTYPE svg PUBLIC "-//W3C//DTD SVG 1.1//EN" "http://www.w3.org/Graphics/SVG/1.1/DTD/svg11.dtd">
<svg width="100%" height="100%" viewBox="0 0 899 217" version="1.1" xmlns="http://www.w3.org/2000/svg" xmlns:xlink="http://www.w3.org/1999/xlink" xml:space="preserve" xmlns:serif="http://www.serif.com/" style="fill-rule:evenodd;clip-rule:evenodd;stroke-linejoin:round;stroke-miterlimit:2;">
    <g id="Artboard1" transform="matrix(1,0,0,1,-484,-442)">
        <rect x="484" y="442" width="899" height="217" style="fill:none;"/>
        <g transform="matrix(2.09033,0,0,2.09033,825.153,477.884)">
            <path d="M191.5,57.4C189.2,62 185.3,65.7 179.6,65.7C173.9,65.7 170,62.1 167.7,57.4C165.4,52.9 164.9,47.6 164.9,44.8C164.9,42.1 165.5,36.7 167.7,32.2C170,27.6 173.9,23.9 179.6,23.9C185.3,23.9 189.2,27.5 191.5,32.2C193.8,36.7 194.3,42 194.3,44.8C194.4,47.6 193.8,53 191.5,57.4M199,26C194.1,20.6 186.7,18 179.6,18C172.5,18 165.1,20.6 160.1,26C156.3,30.2 153.4,36.4 153.4,44.9C153.4,53.4 156.4,59.5 160.1,63.7C165,69.1 172.4,71.7 179.6,71.7C186.7,71.7 194.1,69.1 199,63.7C202.8,59.5 205.7,53.3 205.7,44.8C205.8,36.4 202.7,30.2 199,26M140.5,57C140.5,65.7 147.5,65.7 149.2,65.7C152.5,65.7 157.3,65 157.3,65L158,70.4C158,70.4 153.3,71.7 147.3,71.7C142.2,71.7 135.9,69.6 132.6,65.7C128.6,61 128.6,54.3 128.6,44.9L128.6,4.6C135.4,4.6 140.7,5.9 140.7,10L140.5,57ZM74.5,70.4C74.5,70.4 69.3,71.7 63.8,71.7C58.3,71.7 52.4,69.6 49.1,65.7C45,61 45,54.3 45,44.8L45,4.6C51.8,4.6 57,5.9 57,10L57,18L67.9,18L68.7,24L57,24L57,57C57,65.7 64,65.7 65.7,65.7C69,65.7 73.8,65 73.8,65L74.5,70.4ZM23.2,17.3C30,17.3 35.3,18.7 35.3,22.7L35.3,71.7C28.5,71.7 23.2,70.3 23.2,66.3L23.2,17.3ZM108.2,49.6C108.2,55.6 106.9,65.7 96.1,65.7C90.3,65.7 87.4,61.6 87.4,57C87.4,45.8 98.3,44.9 103,44.9L108.3,44.9L108.2,49.6ZM89.8,18L81.3,18L82.1,24L88.8,24C104.2,24 108.3,29 108.3,36.1L108.3,38.1L99.6,38.1C95.6,38.1 75.4,37.9 75.4,55.5C75.4,55.5 74.7,71.6 93.5,71.6C105.6,71.6 108.2,65.2 108.2,65.2L108.3,64.8L108.3,65.6C108.2,69.4 113.2,71.6 120.4,71.6L120.4,43.4C120.3,37 121.7,18 89.8,18" style="fill:white;fill-rule:nonzero;"/>
            <path d="M240.2,58.3C240.4,59.1 237.6,59.4 236.3,59.4C231.6,59.4 221.5,59.2 210.7,66C199.5,73 196.3,73.3 195.6,73.4C195.4,73.4 194.9,73.5 194.9,74C194.9,74.4 195.5,74.5 195.8,74.5C196.6,74.5 200.3,74.2 210.3,69.7C216.9,66.8 221.2,67 222.2,67C225.5,67 229.5,68 236.2,70.9C245.1,74.8 253.3,74.5 254.6,74.5C254.9,74.5 255.5,74.5 255.5,74C255.5,73.5 255,73.4 254.8,73.4C251.6,72.7 239.5,71.1 239.5,67.3C239.5,63.6 246.5,63.8 246.8,63.8C247.1,63.8 248.4,63.7 248.1,62.2C247.9,61.3 247.2,60.6 246.5,60.1C246.5,60.1 239.5,54 230.8,54.4C222.7,54.8 231.4,56.8 234.7,57.2C240,57.7 240.2,58.1 240.2,58.3" style="fill:white;fill-rule:nonzero;"/>
            <g transform="matrix(0.478393,0,0,0.478393,-323.467,-229.852)">
                <g transform="matrix(195.811,0,0,195.811,356,627.761)">
                    <path d="M0.086,-0.703L0.17,-0.703L0.17,-0.411L0.18,-0.41C0.195,-0.444 0.214,-0.469 0.234,-0.487C0.258,-0.508 0.288,-0.519 0.322,-0.519C0.381,-0.519 0.427,-0.494 0.458,-0.444C0.487,-0.397 0.501,-0.337 0.501,-0.264C0.501,-0.174 0.48,-0.105 0.437,-0.057C0.396,-0.011 0.336,0.012 0.256,0.012C0.213,0.012 0.156,0.007 0.086,-0.004L0.086,-0.703ZM0.165,-0.3L0.165,-0.069C0.195,-0.063 0.225,-0.06 0.256,-0.06C0.309,-0.06 0.349,-0.076 0.375,-0.106C0.402,-0.138 0.416,-0.186 0.416,-0.249C0.416,-0.306 0.41,-0.349 0.397,-0.38C0.381,-0.421 0.354,-0.441 0.314,-0.441C0.28,-0.441 0.25,-0.427 0.224,-0.398C0.206,-0.379 0.186,-0.346 0.165,-0.3Z" style="fill:white;fill-rule:nonzero;"/>
                </g>
                <g transform="matrix(195.811,0,0,195.811,461.65,627.761)">
                    <path d="M0.271,-0.519C0.287,-0.519 0.304,-0.518 0.321,-0.515C0.338,-0.513 0.355,-0.508 0.372,-0.501C0.388,-0.494 0.404,-0.485 0.419,-0.472C0.434,-0.46 0.447,-0.444 0.458,-0.425C0.469,-0.405 0.478,-0.381 0.485,-0.353C0.491,-0.325 0.495,-0.292 0.495,-0.254C0.495,-0.215 0.491,-0.182 0.485,-0.155C0.478,-0.127 0.469,-0.103 0.458,-0.083C0.447,-0.064 0.434,-0.048 0.419,-0.035C0.404,-0.023 0.388,-0.013 0.372,-0.006C0.355,0.001 0.338,0.006 0.321,0.008C0.304,0.01 0.287,0.012 0.271,0.012C0.255,0.012 0.239,0.01 0.222,0.008C0.205,0.006 0.188,0.001 0.171,-0.006C0.155,-0.013 0.139,-0.023 0.125,-0.035C0.11,-0.048 0.097,-0.064 0.085,-0.083C0.074,-0.103 0.065,-0.127 0.059,-0.155C0.052,-0.182 0.049,-0.215 0.049,-0.254C0.049,-0.292 0.052,-0.325 0.059,-0.353C0.065,-0.381 0.074,-0.405 0.085,-0.425C0.097,-0.444 0.11,-0.46 0.125,-0.472C0.139,-0.485 0.155,-0.494 0.171,-0.501C0.188,-0.508 0.205,-0.513 0.222,-0.515C0.239,-0.518 0.255,-0.519 0.271,-0.519ZM0.271,-0.45C0.252,-0.45 0.235,-0.447 0.219,-0.441C0.202,-0.436 0.188,-0.425 0.175,-0.411C0.163,-0.396 0.153,-0.376 0.145,-0.351C0.138,-0.326 0.134,-0.293 0.134,-0.254C0.134,-0.215 0.138,-0.183 0.145,-0.157C0.153,-0.132 0.163,-0.112 0.175,-0.098C0.188,-0.083 0.202,-0.072 0.219,-0.067C0.235,-0.061 0.252,-0.058 0.271,-0.058C0.29,-0.058 0.308,-0.061 0.324,-0.067C0.341,-0.072 0.356,-0.083 0.369,-0.098C0.381,-0.112 0.391,-0.132 0.399,-0.157C0.406,-0.183 0.41,-0.215 0.41,-0.254C0.41,-0.293 0.406,-0.326 0.399,-0.351C0.391,-0.376 0.381,-0.396 0.369,-0.411C0.356,-0.425 0.341,-0.436 0.324,-0.441C0.308,-0.447 0.29,-0.45 0.271,-0.45Z" style="fill:white;fill-rule:nonzero;"/>
                </g>
                <g transform="matrix(195.811,0,0,195.811,568.065,627.761)">
                    <path d="M0.271,-0.519C0.287,-0.519 0.304,-0.518 0.321,-0.515C0.338,-0.513 0.355,-0.508 0.372,-0.501C0.388,-0.494 0.404,-0.485 0.419,-0.472C0.434,-0.46 0.447,-0.444 0.458,-0.425C0.469,-0.405 0.478,-0.381 0.485,-0.353C0.491,-0.325 0.495,-0.292 0.495,-0.254C0.495,-0.215 0.491,-0.182 0.485,-0.155C0.478,-0.127 0.469,-0.103 0.458,-0.083C0.447,-0.064 0.434,-0.048 0.419,-0.035C0.404,-0.023 0.388,-0.013 0.372,-0.006C0.355,0.001 0.338,0.006 0.321,0.008C0.304,0.01 0.287,0.012 0.271,0.012C0.255,0.012 0.239,0.01 0.222,0.008C0.205,0.006 0.188,0.001 0.171,-0.006C0.155,-0.013 0.139,-0.023 0.125,-0.035C0.11,-0.048 0.097,-0.064 0.085,-0.083C0.074,-0.103 0.065,-0.127 0.059,-0.155C0.052,-0.182 0.049,-0.215 0.049,-0.254C0.049,-0.292 0.052,-0.325 0.059,-0.353C0.065,-0.381 0.074,-0.405 0.085,-0.425C0.097,-0.444 0.11,-0.46 0.125,-0.472C0.139,-0.485 0.155,-0.494 0.171,-0.501C0.188,-0.508 0.205,-0.513 0.222,-0.515C0.239,-0.518 0.255,-0.519 0.271,-0.519ZM0.271,-0.45C0.252,-0.45 0.235,-0.447 0.219,-0.441C0.202,-0.436 0.188,-0.425 0.175,-0.411C0.163,-0.396 0.153,-0.376 0.145,-0.351C0.138,-0.326 0.134,-0.293 0.134,-0.254C0.134,-0.215 0.138,-0.183 0.145,-0.157C0.153,-0.132 0.163,-0.112 0.175,-0.098C0.188,-0.083 0.202,-0.072 0.219,-0.067C0.235,-0.061 0.252,-0.058 0.271,-0.058C0.29,-0.058 0.308,-0.061 0.324,-0.067C0.341,-0.072 0.356,-0.083 0.369,-0.098C0.381,-0.112 0.391,-0.132 0.399,-0.157C0.406,-0.183 0.41,-0.215 0.41,-0.254C0.41,-0.293 0.406,-0.326 0.399,-0.351C0.391,-0.376 0.381,-0.396 0.369,-0.411C0.356,-0.425 0.341,-0.436 0.324,-0.441C0.308,-0.447 0.29,-0.45 0.271,-0.45Z" style="fill:white;fill-rule:nonzero;"/>
                </g>
                <g transform="matrix(195.811,0,0,195.811,674.48,627.761)">
                    <path d="M0.152,-0.197C0.152,-0.171 0.153,-0.148 0.153,-0.13C0.154,-0.112 0.155,-0.096 0.156,-0.083C0.157,-0.069 0.158,-0.056 0.16,-0.045C0.163,-0.034 0.165,-0.022 0.168,-0.009C0.155,-0.005 0.141,-0.002 0.127,0.001C0.114,0.004 0.1,0.007 0.086,0.009C0.08,-0.012 0.075,-0.031 0.073,-0.049C0.07,-0.066 0.068,-0.084 0.068,-0.101L0.068,-0.702L0.152,-0.702L0.152,-0.197Z" style="fill:white;fill-rule:nonzero;"/>
                </g>
            </g>
        </g>
    </g>
</svg>
